<?xml version="1.0" encoding="utf-8"?>
<!-- Generator: Adobe Illustrator 16.0.0, SVG Export Plug-In . SVG Version: 6.00 Build 0)  -->
<!DOCTYPE svg PUBLIC "-//W3C//DTD SVG 1.1//EN" "http://www.w3.org/Graphics/SVG/1.1/DTD/svg11.dtd">
<svg version="1.1" id="Layer_1" xmlns="http://www.w3.org/2000/svg" xmlns:xlink="http://www.w3.org/1999/xlink" x="0px" y="0px"
	 width="50px" height="250px" viewBox="0 0 50 250" enable-background="new 0 0 50 250" xml:space="preserve">
<polygon fill="#DDDDDD" points="20,2.234 17.766,0 10,7.766 2.234,0 0,2.234 7.766,10 0,17.766 2.234,20 10,12.234 17.766,20 
	20,17.766 12.234,10 "/>
<polygon fill="#249DB3" points="50,2.234 47.766,0 40,7.766 32.232,0 30,2.234 37.766,10 30,17.766 32.232,20 40,12.234 47.766,20 
	50,17.766 42.232,10 "/>
<path fill="#249DB3" d="M20,30v3.5H0V30H20z M20,37.297v3.5H0v-3.5H20z M20,44.594v3.5H0v-3.5H20z"/>
<polygon fill="#DDDDDD" points="6.117,60 3.883,62.234 11.648,70 3.883,77.766 6.117,80 16.117,70 "/>
<polygon fill="#249DB3" points="36.117,60 33.884,62.234 41.649,70 33.884,77.766 36.117,80 46.118,70 "/>
<polygon fill="#DDDDDD" points="3.883,100 13.883,110 16.117,107.766 8.352,100 16.117,92.234 13.883,90 "/>
<polygon fill="#249DB3" points="33.884,100 43.885,110 46.118,107.766 38.353,100 46.118,92.234 43.885,90 "/>
<path fill="#DDDDDD" d="M19.66,123.885l-4.339,4.339l-3.547-3.546l4.339-4.34c-2.061-0.732-4.449-0.28-6.098,1.37
	c-1.65,1.649-2.103,4.038-1.371,6.098L0,136.45l3.547,3.549l8.645-8.646c2.061,0.732,4.449,0.281,6.098-1.369
	C19.94,128.334,20.392,125.947,19.66,123.885z"/>
<path fill="#249DB3" d="M49.66,123.885l-4.34,4.339l-3.547-3.546l4.34-4.34c-2.062-0.732-4.449-0.28-6.099,1.37
	c-1.649,1.649-2.103,4.038-1.37,6.098L30,136.45l3.547,3.549l8.646-8.646c2.061,0.732,4.448,0.281,6.098-1.369
	C49.939,128.334,50.393,125.947,49.66,123.885z"/>
</svg>
